<?xml version="1.0" encoding="UTF-8"?>
<svg id="Layer_1" data-name="Layer 1" xmlns="http://www.w3.org/2000/svg" viewBox="0 0 1223.18 619.43">
  <defs>
    <style>
      .cls-1 {
        fill: #fff;
      }
    </style>
  </defs>
  <g>
    <path class="cls-1" d="M994.36,348.82c7.82-.96,29.06-4.64,39.08-10.64.12-.62.24-1.24.36-1.85.15-.83.31-1.65.45-2.47.16-.92.29-1.83.43-2.74.12-.8.24-1.61.35-2.41.12-.91.22-1.8.32-2.7.09-.78.18-1.57.25-2.34.08-.9.15-1.78.21-2.66.06-.76.12-1.52.16-2.27.05-.88.07-1.76.1-2.63.02-.73.05-1.47.06-2.2.01-.87,0-1.74-.01-2.6,0-.71,0-1.42-.03-2.12-.03-.86-.08-1.72-.13-2.57-.04-.68-.07-1.37-.12-2.04-.07-.86-.16-1.7-.25-2.54-.07-.65-.13-1.31-.21-1.96-.11-.85-.24-1.68-.37-2.52-.1-.63-.18-1.26-.29-1.88-.15-.84-.32-1.67-.49-2.5-.12-.6-.23-1.2-.37-1.79-.19-.84-.41-1.66-.63-2.48-.15-.56-.28-1.13-.44-1.69-.24-.84-.51-1.66-.77-2.48-.17-.53-.32-1.06-.5-1.58-.29-.84-.61-1.67-.93-2.5-.18-.48-.35-.97-.55-1.45-.35-.87-.74-1.72-1.13-2.57-.19-.42-.36-.84-.55-1.25-.45-.95-.94-1.88-1.43-2.81-.16-.3-.3-.61-.46-.9-.66-1.22-1.36-2.42-2.09-3.6-.02-.03-.04-.06-.06-.09-.3-.48-.59-.94-.89-1.4-.11-.17-.22-.33-.33-.5-.22-.32-.43-.65-.65-.96-.12-.17-.24-.35-.36-.52-.22-.31-.44-.62-.66-.92-.11-.15-.22-.3-.33-.45-.29-.39-.58-.77-.87-1.15-.04-.05-.08-.1-.11-.15-.33-.42-.66-.83-.99-1.23-.1-.12-.2-.24-.29-.36-.24-.28-.47-.57-.71-.84-.11-.13-.22-.26-.33-.39-.23-.27-.47-.53-.7-.79-.1-.11-.2-.22-.29-.33-.3-.32-.59-.64-.88-.95-.03-.03-.06-.06-.09-.09-.33-.35-.65-.68-.98-1.01-.07-.07-.14-.14-.22-.22-.25-.25-.5-.49-.74-.73-.09-.09-.18-.17-.27-.26-.23-.22-.47-.44-.7-.66-.08-.07-.16-.15-.24-.22-.28-.26-.56-.51-.83-.75-.02-.02-.04-.04-.07-.06-.31-.27-.61-.53-.91-.79-.04-.03-.08-.06-.11-.1-.25-.21-.5-.42-.74-.61-.07-.05-.13-.11-.2-.16-.22-.18-.43-.35-.64-.51-.06-.05-.12-.1-.19-.15-.24-.19-.49-.38-.72-.55-.01,0-.02-.02-.03-.02-3.33,11.63-8.66,23.73-15.9,36.03-9.78,16.09-22.59,45.8-15.49,57.25,2.68,4.32,8.56,6.12,17.48,5.37Z"/>
    <path class="cls-1" d="M1161.29,313.67c19.88-26.82,61.98-92.69,61.9-129.93-.03.11-.06.22-.09.33-.22.88-.46,1.77-.72,2.66-.11.38-.23.76-.35,1.14-.21.68-.44,1.37-.68,2.06-.13.39-.27.77-.41,1.16-.32.88-.67,1.77-1.03,2.65-.11.26-.22.53-.33.79-.4.94-.82,1.88-1.26,2.83-.18.39-.37.78-.56,1.17-.35.73-.72,1.45-1.09,2.19-.2.39-.4.79-.61,1.18-.5.95-1.03,1.9-1.58,2.85-.13.24-.27.47-.41.71-.58,1-1.19,2.01-1.83,3.02-.25.4-.5.8-.76,1.19-.49.77-1,1.54-1.51,2.31-.27.4-.54.8-.81,1.21-.69,1-1.39,2.01-2.13,3.02-.16.22-.32.45-.49.67-.77,1.05-1.57,2.11-2.38,3.17-.31.41-.64.82-.96,1.23-.63.8-1.27,1.61-1.93,2.42-.34.42-.67.83-1.02,1.25-.86,1.05-1.74,2.1-2.65,3.15-.2.24-.41.48-.61.71-.94,1.09-1.91,2.18-2.9,3.28-.38.43-.78.86-1.17,1.28-.76.83-1.54,1.67-2.33,2.5-.41.44-.82.87-1.24,1.31-1.03,1.08-2.08,2.17-3.16,3.26-.26.26-.52.52-.78.79-1.11,1.11-2.24,2.23-3.39,3.36-.46.45-.93.9-1.4,1.36-.88.85-1.78,1.7-2.69,2.56-.49.46-.98.92-1.48,1.39-1.18,1.1-2.38,2.2-3.61,3.31-.35.31-.7.63-1.05.95-1.25,1.12-2.52,2.25-3.81,3.38-.55.48-1.11.96-1.66,1.44-1,.86-2.01,1.73-3.03,2.6-.58.49-1.15.98-1.74,1.47-1.31,1.11-2.65,2.22-4,3.33-.47.39-.94.78-1.42,1.16-1.37,1.12-2.76,2.24-4.17,3.37-.64.51-1.3,1.03-1.95,1.55-1.1.87-2.21,1.74-3.33,2.62-.67.53-1.34,1.05-2.03,1.58-1.43,1.11-2.88,2.22-4.35,3.33-.3.23-.6.46-.9.69-43.09,32.57-89.03,58.28-98.13,63.28-4,13.25-10.78,45.25-1.32,59.3,2.9,4.3,7.13,6.6,12.94,7.02l1.17.09.21.19c2.82.25,30.02-.25,107.04-96.91Z"/>
    <path class="cls-1" d="M917.73,88.01c2.05-.08,4.1-.15,6.12-.22.56-.02,1.11-.03,1.67-.05,1.49-.05,2.97-.09,4.44-.13.76-.02,1.51-.04,2.26-.06,1.33-.03,2.65-.06,3.96-.09.72-.02,1.44-.03,2.16-.05,1.87-.04,3.73-.07,5.58-.09.69,0,1.37-.01,2.05-.02,1.25-.01,2.49-.03,3.73-.04.87,0,1.73-.01,2.6-.02,1.05,0,2.1,0,3.15-.01.57,0,1.16,0,1.73,0,.3,0,.59,0,.89,0,1.58,0,3.15,0,4.71.02.97,0,1.93.01,2.89.02,1.12.01,2.24.02,3.35.04.91.01,1.82.03,2.72.04,1.01.02,2.01.03,3.02.05.87.02,1.75.03,2.61.05,1.62.04,3.23.08,4.84.12.93.03,1.84.06,2.76.08.87.03,1.75.06,2.62.08.96.03,1.92.07,2.87.1.83.03,1.66.07,2.49.1,1.63.07,3.24.14,4.84.21.79.04,1.59.07,2.37.11.99.05,1.98.1,2.96.15.71.04,1.41.08,2.11.12,1,.06,2,.11,2.99.17.6.04,1.19.07,1.78.11,1.86.12,3.7.24,5.52.36.58.04,1.16.08,1.73.12,1.02.07,2.03.15,3.04.23.56.04,1.12.09,1.68.13,3.42.27,6.79.56,10.11.87.46.04.93.09,1.39.13,1.04.1,2.08.2,3.12.3.37.04.74.08,1.11.11,2.26.23,4.51.47,6.72.72.05,0,.1.01.14.02,1.07.12,2.14.24,3.2.37.36.04.71.08,1.07.13,3.4.41,6.74.83,10.03,1.28.19.03.39.05.58.08,1.05.14,2.09.29,3.13.44.26.04.51.07.77.11,3.26.47,6.46.96,9.6,1.46.18.03.36.06.54.09,1.04.17,2.08.34,3.11.51.1.02.19.03.29.05,3.2.54,6.33,1.1,9.4,1.67.15.03.31.06.46.09,4.17.79,8.22,1.6,12.16,2.45.09.02.19.04.28.06,2.94.63,5.83,1.28,8.64,1.95.04.01.09.02.13.03,3.81.9,7.51,1.82,11.1,2.77.06.02.12.03.18.05,3.58.95,7.05,1.92,10.41,2.9.05.02.11.03.16.05,2.51.74,4.96,1.49,7.35,2.24.02,0,.04.01.05.02,3.19,1.01,6.28,2.04,9.27,3.08.07.02.14.05.21.07,2.96,1.03,5.81,2.07,8.57,3.13.07.03.15.06.22.08,2.03.77,4,1.55,5.93,2.33.05.02.11.04.16.06.63.26,1.25.51,1.87.77.06.03.13.05.19.08,1.85.77,3.64,1.54,5.39,2.31.11.05.22.1.33.14,1.77.78,3.49,1.57,5.16,2.35.03.01.05.02.08.04.51.24,1.02.48,1.53.72.14.06.27.13.41.19,1.53.73,3.02,1.47,4.46,2.2.12.06.24.12.36.18.45.23.89.46,1.34.68.14.07.27.14.4.21,1.37.71,2.69,1.41,3.98,2.11.16.09.31.17.47.26.39.21.78.43,1.17.64.12.06.23.13.35.19.76.43,1.51.85,2.24,1.27.1.06.21.12.31.18.36.21.72.41,1.07.62.16.09.32.19.48.28.35.21.7.41,1.04.61.02.01.04.02.06.03.73.44,1.45.87,2.15,1.31.15.09.29.18.44.27.31.19.62.39.93.58.15.1.3.19.45.29,1,.63,1.96,1.25,2.89,1.87.14.09.28.19.42.28.16.11.32.21.48.32-7.91-9.83-21.35-23.45-41.8-38.26-36.91-26.73-107.48-65.24-234.05-96.88-2.6-.65-21.02-4.35-40.01-5.08-23.8-.91-39.41,3.22-43.92,11.64l-.4.66c-.88,1.95-7.65,22.33,61.41,76.17h.03s.08.06.08.06c.33-.02.66-.03.99-.05,1.69-.09,3.38-.17,5.06-.25.64-.03,1.28-.06,1.92-.09,1.64-.07,3.28-.14,4.9-.21.5-.02,1.01-.04,1.52-.06Z"/>
    <path class="cls-1" d="M896.35,184.12c2.86,1.13,66.43,26.4,105.97,51.43,0-.05.02-.1.02-.15.14-.91.26-1.8.37-2.66.01-.1.02-.19.03-.29.1-.88.19-1.73.27-2.56,0-.03,0-.06,0-.1.07-.86.13-1.7.18-2.5,0,0,0-.02,0-.02.04-.79.07-1.54.08-2.28,0-.07,0-.14,0-.21.01-.71.01-1.39,0-2.05,0-.07,0-.15,0-.22-.01-.66-.03-1.29-.06-1.9,0-.04,0-.08,0-.12-.06-1.26-.15-2.41-.27-3.44,0-.02,0-.05,0-.07-.06-.5-.12-.97-.18-1.41,0-.04-.01-.08-.02-.13-.06-.43-.13-.84-.19-1.21,0-.03-.01-.07-.02-.1-.07-.38-.13-.73-.2-1.05,0,0,0-.01,0-.02-.07-.33-.13-.62-.19-.89,0,0,0-.02,0-.03-.06-.25-.11-.47-.17-.67,0-.03-.02-.06-.02-.09-.05-.17-.09-.32-.12-.44-.01-.04-.02-.08-.03-.11-.03-.09-.05-.16-.07-.22-.03-.1-.05-.15-.05-.16l-.19-.52h0s0,0,0,0l-.07-.57c-3.07-29.53-72.93-89.72-99.59-110.43-.43-.33-.84-.65-1.26-.98-34.06,3.94-83.78,15.65-85.96,32.65-1.02,7.97,8.24,25.52,81.74,53.52Z"/>
    <path class="cls-1" d="M1044.19,298.61c.04.32.08.65.11.97,1.14,9.47,1.12,20.37-.71,32.79,7.95-4.5,21.05-12.12,36.55-21.89.02-.01.04-.02.06-.04,1.91-1.2,3.85-2.44,5.82-3.7.09-.06.17-.11.26-.17,1.92-1.23,3.86-2.49,5.83-3.77.16-.1.32-.21.48-.31,1.91-1.25,3.85-2.53,5.8-3.83.22-.15.45-.3.67-.45,1.91-1.27,3.84-2.57,5.79-3.89.27-.19.55-.37.82-.56,1.17-.8,2.35-1.61,3.54-2.42.14-.1.28-.19.42-.29.59-.41,1.19-.82,1.78-1.23.32-.22.64-.45.97-.67.99-.69,1.97-1.38,2.96-2.07.34-.24.67-.47,1.01-.71.56-.4,1.13-.8,1.69-1.2.37-.27.75-.53,1.12-.8.91-.65,1.83-1.31,2.74-1.96.4-.29.79-.57,1.19-.86.55-.4,1.1-.79,1.64-1.19.42-.3.83-.61,1.25-.91.84-.61,1.67-1.23,2.51-1.85.46-.34.92-.68,1.38-1.02.52-.38,1.04-.77,1.55-1.16.47-.35.94-.71,1.41-1.06.39-.3.79-.59,1.18-.89,7.65-5.78,14.78-11.45,21.37-17,.1-.09.2-.17.31-.26,1.53-1.29,3.04-2.58,4.52-3.85.23-.2.46-.4.69-.61,1.33-1.16,2.65-2.31,3.93-3.46.32-.29.63-.57.95-.86,1.18-1.06,2.35-2.11,3.48-3.16.37-.34.73-.68,1.1-1.03,1.06-.99,2.11-1.97,3.14-2.95.4-.38.77-.75,1.16-1.13.97-.94,1.94-1.87,2.87-2.8.4-.4.79-.8,1.19-1.2.89-.89,1.78-1.79,2.64-2.67.41-.43.81-.85,1.21-1.27.82-.85,1.63-1.71,2.42-2.55.41-.44.8-.87,1.2-1.31.75-.82,1.51-1.64,2.23-2.46.4-.45.79-.9,1.18-1.35.69-.79,1.39-1.58,2.05-2.37.39-.46.76-.92,1.14-1.37.64-.77,1.28-1.53,1.89-2.3.38-.47.73-.93,1.1-1.39.59-.74,1.17-1.49,1.73-2.22.36-.47.69-.93,1.04-1.4.54-.72,1.08-1.45,1.59-2.16.34-.47.65-.93.98-1.4.49-.7.98-1.41,1.45-2.11.31-.47.61-.93.91-1.4.44-.69.89-1.37,1.31-2.05.29-.47.56-.93.84-1.39.4-.67.8-1.34,1.18-2,.26-.46.51-.92.76-1.38.36-.65.72-1.31,1.05-1.96.24-.46.46-.91.68-1.37.32-.64.63-1.28.92-1.91.21-.46.4-.9.6-1.36.27-.62.55-1.25.8-1.87.18-.45.35-.9.52-1.34.23-.61.47-1.22.68-1.82.15-.44.29-.88.43-1.32.19-.6.38-1.19.55-1.78.13-.44.23-.87.35-1.3.15-.58.3-1.17.43-1.74.1-.43.18-.85.26-1.28.11-.57.22-1.14.31-1.7.07-.42.12-.84.17-1.25.07-.56.14-1.11.19-1.66.04-.41.06-.82.08-1.23.03-.54.06-1.09.07-1.62,0-.4,0-.8,0-1.2,0-.53-.02-1.06-.05-1.59-.02-.4-.06-.79-.1-1.18-.05-.52-.1-1.04-.17-1.55-.05-.39-.12-.77-.19-1.15-.09-.51-.18-1.01-.29-1.51-.08-.38-.18-.75-.28-1.12-.09-.33-.18-.66-.27-.98-.06-.07-.13-.13-.2-.2-.09-.1-.19-.19-.29-.29-.12-.12-.25-.25-.39-.38-.11-.11-.21-.21-.33-.32-.14-.14-.29-.28-.44-.42-.12-.11-.24-.23-.36-.35-.16-.15-.34-.32-.51-.48-.13-.12-.25-.24-.39-.36-.19-.17-.39-.36-.59-.54-.13-.12-.26-.24-.4-.36-.23-.2-.47-.41-.71-.62-.13-.11-.25-.22-.39-.34-.33-.29-.68-.58-1.04-.88-.05-.04-.1-.09-.16-.13-.42-.35-.85-.71-1.31-1.07-.09-.08-.2-.16-.29-.23-.36-.29-.73-.58-1.12-.89-.16-.12-.33-.25-.49-.38-.33-.26-.67-.52-1.02-.79-.2-.15-.41-.31-.62-.46-.33-.25-.66-.5-1.01-.75-.23-.17-.46-.34-.69-.5-.34-.25-.68-.5-1.04-.75-.25-.18-.51-.36-.76-.54-.36-.25-.72-.51-1.09-.76-.27-.18-.54-.37-.82-.56-.38-.26-.76-.51-1.15-.78-.29-.19-.58-.39-.88-.58-.4-.26-.8-.52-1.21-.79-.31-.2-.63-.4-.95-.6-.41-.26-.83-.53-1.26-.79-.33-.21-.67-.41-1.01-.62-.43-.27-.87-.53-1.32-.8-.35-.21-.71-.42-1.07-.64-.46-.27-.92-.54-1.38-.81-.37-.22-.75-.43-1.13-.65-.48-.27-.96-.55-1.45-.82-.39-.22-.79-.44-1.19-.66-.5-.28-1.01-.55-1.52-.83-.41-.22-.82-.44-1.24-.67-.53-.28-1.06-.56-1.6-.84-.43-.22-.86-.45-1.3-.67-.55-.28-1.11-.56-1.67-.85-.45-.23-.9-.45-1.37-.68-.57-.28-1.16-.57-1.74-.85-.47-.23-.95-.46-1.43-.69-.6-.29-1.21-.57-1.83-.86-.49-.23-.98-.46-1.47-.68-.63-.29-1.28-.58-1.93-.87-.51-.23-1.01-.45-1.52-.68-.66-.29-1.34-.58-2.02-.87-.52-.22-1.04-.45-1.57-.67-.7-.29-1.41-.59-2.12-.88-.53-.22-1.06-.44-1.6-.66-.74-.3-1.51-.6-2.27-.9-.54-.21-1.06-.42-1.6-.64-.81-.32-1.65-.63-2.48-.95-.52-.2-1.02-.39-1.54-.59-.93-.35-1.89-.69-2.85-1.04-.44-.16-.87-.32-1.32-.48-1.42-.51-2.86-1.01-4.33-1.51-1.88-.64-3.78-1.27-5.69-1.89-.62-.2-1.26-.39-1.88-.59-1.3-.41-2.6-.82-3.92-1.22-.76-.23-1.53-.45-2.29-.68-1.2-.36-2.4-.72-3.62-1.06-.82-.23-1.65-.46-2.47-.69-1.18-.33-2.36-.66-3.55-.98-.85-.23-1.71-.45-2.57-.67-1.18-.31-2.36-.62-3.56-.92-.88-.22-1.77-.44-2.65-.65-1.19-.29-2.38-.59-3.58-.87-.9-.21-1.81-.42-2.72-.63-1.21-.28-2.41-.55-3.63-.82-.91-.2-1.83-.4-2.75-.6-1.23-.26-2.46-.53-3.7-.78-.93-.19-1.86-.38-2.79-.56-1.25-.25-2.5-.5-3.77-.74-.93-.18-1.88-.35-2.82-.53-1.28-.24-2.56-.47-3.86-.7-.94-.17-1.89-.33-2.83-.49-1.31-.23-2.62-.45-3.95-.67-.95-.16-1.89-.31-2.85-.46-1.34-.21-2.69-.42-4.04-.63-.94-.14-1.89-.28-2.84-.42-1.38-.2-2.77-.4-4.17-.59-.94-.13-1.88-.26-2.82-.39-1.42-.19-2.86-.38-4.29-.56-.93-.12-1.86-.23-2.8-.35-1.47-.18-2.95-.35-4.44-.52-.92-.1-1.83-.21-2.76-.31-1.53-.17-3.06-.33-4.6-.49-.9-.09-1.8-.19-2.7-.27-1.59-.16-3.18-.3-4.78-.45-.87-.08-1.74-.16-2.62-.24-1.66-.14-3.33-.28-5-.41-.83-.07-1.66-.14-2.5-.2-1.74-.13-3.5-.26-5.26-.38-.78-.05-1.56-.11-2.34-.16-1.85-.12-3.71-.23-5.58-.34-.71-.04-1.42-.09-2.13-.13-1.98-.11-3.98-.21-5.99-.3-.61-.03-1.22-.06-1.83-.09-2.21-.1-4.44-.19-6.67-.27-.41-.02-.82-.03-1.23-.05-2.61-.09-5.23-.17-7.88-.24-.05,0-.09,0-.14,0-8.19-.21-16.53-.31-25.02-.29-.16,0-.32,0-.48,0-2.62,0-5.25.02-7.89.05-.67,0-1.35.02-2.02.03-2.14.03-4.28.06-6.43.1-.97.02-1.94.04-2.92.07-1.87.04-3.74.08-5.62.13-1.17.03-2.35.07-3.52.11-1.69.05-3.39.1-5.09.16-1.34.05-2.68.1-4.03.16-1.19.05-2.38.09-3.57.14,10.1,8.17,29.8,24.59,48.77,43.27.06.06.11.11.17.17.26.25.51.5.77.76,28.76,28.37,44.38,50.61,46.47,66.2.02.12.04.24.05.35,0,0,0,0,0,.01.05.15.1.33.16.54,0,.03.02.06.03.09.06.2.12.43.19.68.01.06.03.1.04.16.06.25.13.53.2.83.02.07.03.14.05.22.07.3.14.63.21.98.02.09.04.18.05.27.07.36.14.73.21,1.13.02.1.03.21.05.31.07.41.13.84.2,1.3.02.11.03.22.04.34.06.47.12.97.18,1.48.01.11.02.22.03.33.05.54.11,1.1.15,1.68,0,.1.01.2.02.3.04.62.08,1.25.11,1.91,0,.07,0,.14,0,.21.03.65.04,1.33.05,2.03,0,.08,0,.15,0,.23,0,.72,0,1.47-.02,2.23,0,.12,0,.24,0,.36-.02.75-.05,1.53-.1,2.33,0,.15-.02.29-.02.44-.05.79-.11,1.6-.18,2.44-.02.17-.03.34-.05.52-.08.83-.17,1.68-.28,2.55-.02.19-.05.38-.07.58-.11.87-.24,1.77-.38,2.68-.03.21-.07.41-.1.62-.15.92-.32,1.86-.5,2.82-.02.09-.03.17-.05.26.03.02.07.05.1.07.23.15.47.31.71.48.06.04.12.08.18.12.28.2.58.4.89.62.07.05.15.11.22.16.28.2.57.41.86.63.05.04.11.08.16.12.33.25.68.52,1.03.79.09.07.17.14.26.21.35.28.7.56,1.07.86.02.02.04.04.07.05.38.31.77.65,1.16.99.09.08.18.16.27.24.4.35.81.71,1.22,1.09.03.02.05.05.08.08.39.36.79.74,1.19,1.12.09.09.18.17.27.26.42.41.85.84,1.28,1.28.06.06.12.12.17.18.39.41.79.83,1.19,1.26.08.09.16.17.24.26.44.48.88.97,1.33,1.48.07.08.15.17.22.26.41.47.82.96,1.22,1.45.06.08.13.15.19.23.45.55.9,1.12,1.34,1.7.08.11.16.22.25.32.43.56.86,1.14,1.29,1.74.03.04.06.08.09.12.45.63.89,1.27,1.34,1.93.09.13.17.26.26.38.45.67.89,1.36,1.33,2.06.37.6.74,1.22,1.11,1.85.11.2.23.39.34.59.22.39.44.79.67,1.19,5.56,10.11,8.6,20.79,9.97,31.28.02.12.03.24.05.36Z"/>
  </g>
  <polygon class="cls-1" points="110.92 334.94 138.24 334.94 27.18 613.81 0 613.81 110.92 334.94"/>
  <polygon class="cls-1" points="147.1 342.82 132.26 376.71 229.41 613.52 256.98 613.52 147.1 342.82"/>
  <polygon class="cls-1" points="77.5 516.86 69.46 537.27 187.95 537.27 178.67 516.05 77.5 516.86"/>
  <polygon class="cls-1" points="226.82 413.97 311.49 613.76 334.29 613.76 250.49 413.03 226.35 413.03 226.82 413.97"/>
  <polygon class="cls-1" points="329.21 574 340.19 600.73 421.62 412.44 396.1 412.44 329.21 574"/>
  <path class="cls-1" d="M452.42,456.45s39.51-47.72,93.81-22.66c0,0,20.89,9.75,21.35,38.52v141.35h21.55v-142.74s3.01-36.93-30.15-54.67c0,0-64.34-33.04-119.99,23.81l13.42,16.39Z"/>
  <path class="cls-1" d="M557.37,494.12v24.59s-56.89-39.86-97.13,5.14c0,0-22.46,25.99,0,56.59,0,0,42.23,42.86,96.59-1.53v23.76s-15.71,16.29-55.63,16.76c0,0-44.54.92-64.97-36.67,0,0-16.71-26.91,0-64.27,0,0,25.99-60.56,121.13-24.36"/>
  <rect class="cls-1" x="634.55" y="412.37" width="22.02" height="201.12"/>
  <path class="cls-1" d="M666.89,424.97v25.29s30.58-23.11,65.41-19.09c0,0,36.69,3.08,35.76,34.63v147.48h23.97v-150.26s2.28-51.13-58.65-55.73c0,0-38.65-3.66-66.49,17.68"/>
  <polygon class="cls-1" points="834.89 583.92 861.35 584.15 965.3 442.75 937.36 442.75 834.89 583.92"/>
  <rect class="cls-1" x="827.01" y="593.9" width="149.31" height="19.59"/>
  <rect class="cls-1" x="827.01" y="410.12" width="149.31" height="19.59"/>
</svg>